<svg id="SvgjsSvg1001" width="288" height="288" xmlns="http://www.w3.org/2000/svg" version="1.1" xmlns:xlink="http://www.w3.org/1999/xlink" xmlns:svgjs="http://svgjs.com/svgjs"><defs id="SvgjsDefs1002"></defs><g id="SvgjsG1008" transform="matrix(0.916700005531311,0,0,0.916700005531311,11.995199203491211,12.000568389892578)"><svg xmlns="http://www.w3.org/2000/svg" viewBox="0 0 64 64" width="288" height="288"><path d="M51.4029,11.8413c-.009-.0101-.0116-.0233-.0211-.0332-.0149-.0156-.0352-.0209-.0508-.0353a27.92468,27.92468,0,0,0-38.6621,0c-.0156.0144-.0358.0198-.0507.0353-.0095.0098-.0121.023-.0211.0331a28.00007,28.00007,0,1,0,38.8058.0001ZM18.0292,31A33.68975,33.68975,0,0,1,20.735,18.6337,27.85948,27.85948,0,0,0,31,20.9762V31ZM36.8651,6.4632a25.92451,25.92451,0,0,1,12.30929,6.0407A25.98026,25.98026,0,0,1,44.211,15.9515,31.1512,31.1512,0,0,0,36.8651,6.4632Zm5.5473,10.3599A25.8654,25.8654,0,0,1,33,18.9762V6.0303A28.36916,28.36916,0,0,1,42.4124,16.8231ZM31,6.0303V18.9762a25.86531,25.86531,0,0,1-9.4124-2.1531A28.36882,28.36882,0,0,1,31,6.0303ZM19.789,15.9515a25.9804,25.9804,0,0,1-4.96341-3.4476A25.92458,25.92458,0,0,1,27.1349,6.4632,31.15089,31.15089,0,0,0,19.789,15.9515ZM33,20.9762a27.85957,27.85957,0,0,0,10.265-2.3425A33.69015,33.69015,0,0,1,45.9708,31H33ZM47.9706,31a35.676,35.676,0,0,0-2.9059-13.2356,27.97737,27.97737,0,0,0,5.56109-3.8788A25.90658,25.90658,0,0,1,57.9747,31ZM13.37419,13.8856a27.97808,27.97808,0,0,0,5.56111,3.8788A35.67556,35.67556,0,0,0,16.0294,31H6.0253A25.90661,25.90661,0,0,1,13.37419,13.8856ZM32,58A26.02761,26.02761,0,0,1,6.0253,33H57.9747A26.02761,26.02761,0,0,1,32,58Z" fill="#ffffff" class="color000 svgShape"></path><path d="M25.16309 38.0132a1.00762 1.00762 0 0 0-1.14989.8237l-.4942 2.9878-.6235-1.2554a1.04143 1.04143 0 0 0-1.791 0l-.6235 1.2554-.4942-2.9878a1.00019 1.00019 0 1 0-1.9736.3262l1 6.042a1.00014 1.00014 0 0 0 1.8823.2817L22 43.2627l1.1045 2.2241a.99933.99933 0 0 0 .895.5552.95513.95513 0 0 0 .1484-.0112 1.00023 1.00023 0 0 0 .83891-.8257l1-6.042A1.00083 1.00083 0 0 0 25.16309 38.0132zM35.16309 38.0132a1.00606 1.00606 0 0 0-1.14989.8237l-.4942 2.9878-.6235-1.2554a1.04143 1.04143 0 0 0-1.791 0l-.6235 1.2554-.4942-2.9878a1.00019 1.00019 0 1 0-1.9736.3262l1 6.042a1.00014 1.00014 0 0 0 1.8823.2817L32 43.2627l1.1045 2.2241a.99933.99933 0 0 0 .895.5552.95513.95513 0 0 0 .1484-.0112 1.00023 1.00023 0 0 0 .83891-.8257l1-6.042A1.00083 1.00083 0 0 0 35.16309 38.0132zM45.16309 38.0132a1.00627 1.00627 0 0 0-1.14989.8237l-.4942 2.9878-.6235-1.2554a1.04143 1.04143 0 0 0-1.791 0l-.6235 1.2554-.4942-2.9878a1.00019 1.00019 0 1 0-1.9736.3262l1 6.042a1.00014 1.00014 0 0 0 1.8823.2817L42 43.2627l1.1045 2.2241a.99933.99933 0 0 0 .895.5552.95513.95513 0 0 0 .1484-.0112 1.00023 1.00023 0 0 0 .83891-.8257l1-6.042A1.00083 1.00083 0 0 0 45.16309 38.0132z" fill="#ffffff" class="color000 svgShape"></path></svg></g></svg>